<?xml version="1.0" encoding="UTF-8" standalone="no"?>
<!-- Created with Inkscape (http://www.inkscape.org/) -->

<svg
   xmlns:dc="http://purl.org/dc/elements/1.1/"
   xmlns:cc="http://creativecommons.org/ns#"
   xmlns:rdf="http://www.w3.org/1999/02/22-rdf-syntax-ns#"
   xmlns:svg="http://www.w3.org/2000/svg"
   xmlns="http://www.w3.org/2000/svg"
   xmlns:sodipodi="http://sodipodi.sourceforge.net/DTD/sodipodi-0.dtd"
   xmlns:inkscape="http://www.inkscape.org/namespaces/inkscape"
   version="1.1"
   id="svg2"
   xml:space="preserve"
   width="206.2"
   height="206.228"
   viewBox="0 0 206.19999 206.22799"
   sodipodi:docname="logo_alterdata_small.svg"
   inkscape:version="0.92+devel unknown"><metadata
     id="metadata8"><rdf:RDF><cc:Work
         rdf:about=""><dc:format>image/svg+xml</dc:format><dc:type
           rdf:resource="http://purl.org/dc/dcmitype/StillImage" /><dc:title></dc:title></cc:Work></rdf:RDF></metadata><defs
     id="defs6"><clipPath
       clipPathUnits="userSpaceOnUse"
       id="clipPath18"><path
         d="M 0,154.672 H 800 V 0 H 0 Z"
         id="path16"
         inkscape:connector-curvature="0" /></clipPath></defs><sodipodi:namedview
     pagecolor="#ffffff"
     bordercolor="#666666"
     inkscape:document-rotation="0"
     borderopacity="1"
     objecttolerance="10"
     gridtolerance="10"
     guidetolerance="10"
     inkscape:pageopacity="0"
     inkscape:pageshadow="2"
     inkscape:window-width="1440"
     inkscape:window-height="847"
     id="namedview4"
     showgrid="false"
     inkscape:zoom="0.74741186"
     inkscape:cx="421.21027"
     inkscape:cy="186.09175"
     inkscape:window-x="0"
     inkscape:window-y="25"
     inkscape:window-maximized="1"
     inkscape:current-layer="g10"
     fit-margin-top="0"
     fit-margin-left="0"
     fit-margin-right="0"
     fit-margin-bottom="0" /><g
     id="g10"
     inkscape:groupmode="layer"
     inkscape:label="Logo_Alterdata"
     transform="matrix(1.3333333,0,0,-1.3333333,-2.6666666e-4,206.22786)"><g
       id="g20"
       transform="translate(42.2322,72.0449)"
       style="fill:#fff"><path
         d="m 0,0 v 10.335 l 5.167,-5.17 z m 38.298,82.626 h -0.006 -0.007 -0.014 c -5.205,0 -9.859,-3.107 -11.851,-7.919 -1.995,-4.81 -0.904,-10.298 2.778,-13.98 L 44.959,44.957 35.033,35.031 -6.18,76.244 c -3.989,3.991 -9.293,6.186 -14.934,6.186 -11.643,0 -21.118,-9.475 -21.118,-21.118 V -50.906 c 0,-11.657 9.484,-21.139 21.139,-21.139 5.669,0 10.977,2.198 14.971,6.191 l 41.155,41.153 41.241,-41.238 c 3.938,-3.938 9.17,-6.106 14.737,-6.106 h 0.562 c 11.493,0 20.845,9.351 20.845,20.846 v 0.291 c 0,5.576 -2.174,10.813 -6.119,14.751 L 64.901,5.169 74.802,15.07 90.35,-0.497 c 2.45,-2.45 5.683,-3.799 9.101,-3.799 7.151,0 12.967,5.8 12.967,12.932 v 60.788 c 0,7.192 -5.854,13.055 -13.043,13.071 z M -7.081,-17.095 15.181,5.165 -7.081,27.427 v -44.522 m 45.352,92.638 h 0.014 l 61.074,-0.129 c 3.302,-0.007 5.978,-2.685 5.978,-5.99 V 8.636 c 0,-3.522 -2.881,-5.854 -5.886,-5.854 -1.435,0 -2.9,0.534 -4.09,1.724 L 74.804,25.086 54.885,5.165 l 46.413,-46.33 c 2.586,-2.584 4.039,-6.087 4.039,-9.743 v -0.291 c 0,-7.601 -6.163,-13.765 -13.764,-13.765 h -0.562 c -3.649,0 -7.15,1.451 -9.732,4.03 L 35.033,-14.685 -11.13,-60.848 c -2.637,-2.637 -6.212,-4.116 -9.94,-4.116 h -0.023 c -7.763,0 -14.058,6.293 -14.058,14.058 V 61.312 c 0,7.753 6.286,14.037 14.037,14.037 3.723,0 7.294,-1.479 9.926,-4.111 L 35.033,25.017 54.97,44.957 34.206,65.73 c -3.622,3.626 -1.054,9.813 4.065,9.813"
         style="fill:#fff;fill-opacity:1;fill-rule:nonzero;stroke:none"
         id="path22"
         inkscape:connector-curvature="0" /></g></g></svg>